solid exported
	facet normal 0 1 0
		outer loop
			vertex 0.07526960223913193 -2.533141803741455 0.07526959478855133
			vertex 0.07526960223913193 -2.533141803741455 -0.07526960223913193
			vertex -0.07526960968971252 -2.533141803741455 -0.07526958733797073
		endloop
	endfacet
	facet normal 0 1 0
		outer loop
			vertex -0.07526960968971252 -2.533141803741455 -0.07526958733797073
			vertex -0.07526957243680954 -2.533141803741455 0.07526963204145432
			vertex 0.07526960223913193 -2.533141803741455 0.07526959478855133
		endloop
	endfacet
	facet normal 0 -1 0
		outer loop
			vertex 0.039294857531785965 -2.621786880493164 0.03929481655359268
			vertex -0.03929484263062477 -2.621786880493164 0.03929483890533447
			vertex -0.03929486125707626 -2.621786880493164 -0.039294835180044174
		endloop
	endfacet
	facet normal 0 -1 0
		outer loop
			vertex -0.03929486125707626 -2.621786880493164 -0.039294835180044174
			vertex 0.03929481282830238 -2.621786880493164 -0.03929487615823746
			vertex 0.039294857531785965 -2.621786880493164 0.03929481655359268
		endloop
	endfacet
	facet normal 0.9266026124424539 -0.3760420170865773 -5.270712130638059e-7
		outer loop
			vertex 0.07526960223913193 -2.533141803741455 0.07526959478855133
			vertex 0.039294857531785965 -2.621786880493164 0.03929481655359268
			vertex 0.03929481282830238 -2.621786880493164 -0.03929487615823746
		endloop
	endfacet
	facet normal 0.9266023750895686 -0.37604260194606987 0
		outer loop
			vertex 0.03929481282830238 -2.621786880493164 -0.03929487615823746
			vertex 0.07526960223913193 -2.533141803741455 -0.07526960223913193
			vertex 0.07526960223913193 -2.533141803741455 0.07526959478855133
		endloop
	endfacet
	facet normal -4.8314875862133e-7 -0.37604186522183514 -0.9266026740735479
		outer loop
			vertex 0.07526960223913193 -2.533141803741455 -0.07526960223913193
			vertex 0.03929481282830238 -2.621786880493164 -0.03929487615823746
			vertex -0.03929486125707626 -2.621786880493164 -0.039294835180044174
		endloop
	endfacet
	facet normal -9.171997784154194e-8 -0.3760422995670665 -0.9266024978038341
		outer loop
			vertex -0.03929486125707626 -2.621786880493164 -0.039294835180044174
			vertex -0.07526960968971252 -2.533141803741455 -0.07526958733797073
			vertex 0.07526960223913193 -2.533141803741455 -0.07526960223913193
		endloop
	endfacet
	facet normal -0.9266025553971374 -0.3760421576518343 2.1961304397324013e-7
		outer loop
			vertex -0.07526960968971252 -2.533141803741455 -0.07526958733797073
			vertex -0.03929486125707626 -2.621786880493164 -0.039294835180044174
			vertex -0.03929484263062477 -2.621786880493164 0.03929483890533447
		endloop
	endfacet
	facet normal -0.9266025597593812 -0.3760421469028565 2.2929994858691174e-7
		outer loop
			vertex -0.03929484263062477 -2.621786880493164 0.03929483890533447
			vertex -0.07526957243680954 -2.533141803741455 0.07526963204145432
			vertex -0.07526960968971252 -2.533141803741455 -0.07526958733797073
		endloop
	endfacet
	facet normal 2.292999730289864e-7 -0.3760425815422965 0.9266023833699938
		outer loop
			vertex 0.039294857531785965 -2.621786880493164 0.03929481655359268
			vertex 0.07526960223913193 -2.533141803741455 0.07526959478855133
			vertex -0.07526957243680954 -2.533141803741455 0.07526963204145432
		endloop
	endfacet
	facet normal 2.635355207819539e-7 -0.37604254355317274 0.9266023987870908
		outer loop
			vertex -0.07526957243680954 -2.533141803741455 0.07526963204145432
			vertex -0.03929484263062477 -2.621786880493164 0.03929483890533447
			vertex 0.039294857531785965 -2.621786880493164 0.03929481655359268
		endloop
	endfacet
	facet normal 0 1 0
		outer loop
			vertex 0.11661291867494583 -2.4081193923950193 0.11661291122436523
			vertex 0.11661291867494583 -2.4081193923950193 -0.11661291867494583
			vertex -0.11661293357610703 -2.4081193923950193 -0.11661289632320404
		endloop
	endfacet
	facet normal 0 1 0
		outer loop
			vertex -0.11661293357610703 -2.4081193923950193 -0.11661289632320404
			vertex -0.11661287397146225 -2.4081193923950193 0.11661296337842941
			vertex 0.11661291867494583 -2.4081193923950193 0.11661291122436523
		endloop
	endfacet
	facet normal 0 -1 0
		outer loop
			vertex 0.06087833270430565 -2.5454542160034177 0.060878269374370575
			vertex -0.06087831035256386 -2.5454542160034177 0.06087830662727356
			vertex -0.060878340154886246 -2.5454542160034177 -0.06087829917669296
		endloop
	endfacet
	facet normal 0 -1 0
		outer loop
			vertex -0.060878340154886246 -2.5454542160034177 -0.06087829917669296
			vertex 0.06087826192378998 -2.5454542160034177 -0.060878362506628036
			vertex 0.06087833270430565 -2.5454542160034177 0.060878269374370575
		endloop
	endfacet
	facet normal 0.9266023108849988 -0.37604276015140886 -5.386596883714269e-7
		outer loop
			vertex 0.11661291867494583 -2.4081193923950193 0.11661291122436523
			vertex 0.06087833270430565 -2.5454542160034177 0.060878269374370575
			vertex 0.06087826192378998 -2.5454542160034177 -0.060878362506628036
		endloop
	endfacet
	facet normal 0.9266020683125853 -0.37604335787092263 0
		outer loop
			vertex 0.06087826192378998 -2.5454542160034177 -0.060878362506628036
			vertex 0.11661291867494583 -2.4081193923950193 -0.11661291867494583
			vertex 0.11661291867494583 -2.4081193923950193 0.11661291122436523
		endloop
	endfacet
	facet normal -4.819588187839473e-7 -0.37604260726513417 -0.92660237293081
		outer loop
			vertex 0.11661291867494583 -2.4081193923950193 -0.11661291867494583
			vertex 0.06087826192378998 -2.5454542160034177 -0.060878362506628036
			vertex -0.060878340154886246 -2.5454542160034177 -0.06087829917669296
		endloop
	endfacet
	facet normal -8.88030757535312e-8 -0.3760430435273837 -0.9266021958827069
		outer loop
			vertex -0.060878340154886246 -2.5454542160034177 -0.06087829917669296
			vertex -0.11661293357610703 -2.4081193923950193 -0.11661289632320404
			vertex 0.11661291867494583 -2.4081193923950193 -0.11661291867494583
		endloop
	endfacet
	facet normal -0.9266022492701459 -0.3760429119760869 2.2680411280825044e-7
		outer loop
			vertex -0.11661293357610703 -2.4081193923950193 -0.11661289632320404
			vertex -0.060878340154886246 -2.5454542160034177 -0.06087829917669296
			vertex -0.06087831035256386 -2.5454542160034177 0.06087830662727356
		endloop
	endfacet
	facet normal -0.9266022537752467 -0.3760429008751223 2.3680820923977123e-7
		outer loop
			vertex -0.06087831035256386 -2.5454542160034177 0.06087830662727356
			vertex -0.11661287397146225 -2.4081193923950193 0.11661296337842941
			vertex -0.11661293357610703 -2.4081193923950193 -0.11661289632320404
		endloop
	endfacet
	facet normal 2.0720720246769226e-7 -0.37604334374907816 0.926602074043637
		outer loop
			vertex 0.06087833270430565 -2.5454542160034177 0.060878269374370575
			vertex 0.11661291867494583 -2.4081193923950193 0.11661291122436523
			vertex -0.11661287397146225 -2.4081193923950193 0.11661296337842941
		endloop
	endfacet
	facet normal 2.8350501116838447e-7 -0.37604325908586056 0.9266021084025245
		outer loop
			vertex -0.11661287397146225 -2.4081193923950193 0.11661296337842941
			vertex -0.06087831035256386 -2.5454542160034177 0.06087830662727356
			vertex 0.06087833270430565 -2.5454542160034177 0.060878269374370575
		endloop
	endfacet
	facet normal 0.09788338569004901 -0.052284225883222984 0.9938235268545644
		outer loop
			vertex -8.84417605817589e-9 1.8558028697967528 0.2744343876838684
			vertex 0 0.44005624055862425 0.1999531388282776
			vertex 0.03900892287492752 0.44005624055862425 0.19611108303070068
		endloop
	endfacet
	facet normal 0.09788331391408932 -0.05228422824513211 0.9938235337996412
		outer loop
			vertex 0.03900892287492752 0.44005624055862425 0.19611108303070068
			vertex 0.05353948846459389 1.8558028697967528 0.269161194562912
			vertex -8.84417605817589e-9 1.8558028697967528 0.2744343876838684
		endloop
	endfacet
	facet normal 0.2898875816876048 -0.05228422664617194 0.9556314925887092
		outer loop
			vertex 0.05353948846459389 1.8558028697967528 0.269161194562912
			vertex 0.03900892287492752 0.44005624055862425 0.19611108303070068
			vertex 0.07651875913143158 0.44005624055862425 0.1847326010465622
		endloop
	endfacet
	facet normal 0.2898875421581411 -0.05228422799846603 0.9556315045058511
		outer loop
			vertex 0.07651875913143158 0.44005624055862425 0.1847326010465622
			vertex 0.10502150654792786 1.8558028697967528 0.25354430079460144
			vertex 0.05353948846459389 1.8558028697967528 0.269161194562912
		endloop
	endfacet
	facet normal 0.4707519059188694 -0.05228422999264834 0.8807150517436544
		outer loop
			vertex 0.10502150654792786 1.8558028697967528 0.25354430079460144
			vertex 0.07651875913143158 0.44005624055862425 0.1847326010465622
			vertex 0.11108801513910294 0.44005624055862425 0.1662549525499344
		endloop
	endfacet
	facet normal 0.47075214249582586 -0.05228422121444599 0.8807149258117455
		outer loop
			vertex 0.11108801513910294 0.44005624055862425 0.1662549525499344
			vertex 0.15246757864952087 1.8558028697967528 0.2281838357448578
			vertex 0.10502150654792786 1.8558028697967528 0.25354430079460144
		endloop
	endfacet
	facet normal 0.6335254732941011 -0.05228422181471161 0.7719532594896633
		outer loop
			vertex 0.15246757864952087 1.8558028697967528 0.2281838357448578
			vertex 0.11108801513910294 0.44005624055862425 0.1662549525499344
			vertex 0.14138822257518768 0.44005624055862425 0.14138822257518768
		endloop
	endfacet
	facet normal 0.6335255695761376 -0.0522842177408165 0.7719531807489759
		outer loop
			vertex 0.14138822257518768 0.44005624055862425 0.14138822257518768
			vertex 0.19405442476272583 1.8558028697967528 0.19405439496040344
			vertex 0.15246757864952087 1.8558028697967528 0.2281838357448578
		endloop
	endfacet
	facet normal 0.771953226167624 -0.0522842202778326 0.6335255140239707
		outer loop
			vertex 0.19405442476272583 1.8558028697967528 0.19405439496040344
			vertex 0.14138822257518768 0.44005624055862425 0.14138822257518768
			vertex 0.16625496745109558 0.44005624055862425 0.11108800023794174
		endloop
	endfacet
	facet normal 0.7719531805511799 -0.052284222628099834 0.6335255694138107
		outer loop
			vertex 0.16625496745109558 0.44005624055862425 0.11108800023794174
			vertex 0.22818386554718018 1.8558028697967528 0.1524675488471985
			vertex 0.19405442476272583 1.8558028697967528 0.19405439496040344
		endloop
	endfacet
	facet normal 0.8807151677191928 -0.052284222877810885 0.47075168973400155
		outer loop
			vertex 0.22818386554718018 1.8558028697967528 0.1524675488471985
			vertex 0.16625496745109558 0.44005624055862425 0.11108800023794174
			vertex 0.1847326010465622 0.44005624055862425 0.07651875168085098
		endloop
	endfacet
	facet normal 0.8807148941274372 -0.05228424182679819 0.47075219948364994
		outer loop
			vertex 0.1847326010465622 0.44005624055862425 0.07651875168085098
			vertex 0.25354433059692383 1.8558028697967528 0.10502148419618607
			vertex 0.22818386554718018 1.8558028697967528 0.1524675488471985
		endloop
	endfacet
	facet normal 0.9556314596393006 -0.052284245796311926 0.28988768685332383
		outer loop
			vertex 0.25354433059692383 1.8558028697967528 0.10502148419618607
			vertex 0.1847326010465622 0.44005624055862425 0.07651875168085098
			vertex 0.19611108303070068 0.44005624055862425 0.03900893032550812
		endloop
	endfacet
	facet normal 0.9556316232436624 -0.05228422744007127 0.2898871508323162
		outer loop
			vertex 0.19611108303070068 0.44005624055862425 0.03900893032550812
			vertex 0.269161194562912 1.8558028697967528 0.05353948846459389
			vertex 0.25354433059692383 1.8558028697967528 0.10502148419618607
		endloop
	endfacet
	facet normal 0.9938235248624756 -0.052284228200424776 0.09788340467827007
		outer loop
			vertex 0.269161194562912 1.8558028697967528 0.05353948846459389
			vertex 0.19611108303070068 0.44005624055862425 0.03900893032550812
			vertex 0.1999531388282776 0.44005624055862425 1.509604174998458e-8
		endloop
	endfacet
	facet normal 0.9938234775426816 -0.052284243742257416 0.09788387681978589
		outer loop
			vertex 0.1999531388282776 0.44005624055862425 1.509604174998458e-8
			vertex 0.2744344174861908 1.8558028697967528 -5.068053754442303e-10
			vertex 0.269161194562912 1.8558028697967528 0.05353948846459389
		endloop
	endfacet
	facet normal 0.9938235608388939 -0.052284250281937096 -0.09788302760926974
		outer loop
			vertex 0.2744344174861908 1.8558028697967528 -5.068053754442303e-10
			vertex 0.1999531388282776 0.44005624055862425 1.509604174998458e-8
			vertex 0.19611109793186188 0.44005624055862425 -0.03900890052318573
		endloop
	endfacet
	facet normal 0.9938235308508373 -0.05228424008347226 -0.09788333753028991
		outer loop
			vertex 0.19611109793186188 0.44005624055862425 -0.03900890052318573
			vertex 0.2691612243652344 1.8558028697967528 -0.05353948473930359
			vertex 0.2744344174861908 1.8558028697967528 -5.068053754442303e-10
		endloop
	endfacet
	facet normal 0.9556314599340233 -0.05228423991378988 -0.289887686942727
		outer loop
			vertex 0.2691612243652344 1.8558028697967528 -0.05353948473930359
			vertex 0.19611109793186188 0.44005624055862425 -0.03900890052318573
			vertex 0.1847326159477234 0.44005624055862425 -0.0765187218785286
		endloop
	endfacet
	facet normal 0.9556314746901086 -0.0522842415882309 -0.28988763799643436
		outer loop
			vertex 0.1847326159477234 0.44005624055862425 -0.0765187218785286
			vertex 0.25354433059692383 1.8558028697967528 -0.10502148419618607
			vertex 0.2691612243652344 1.8558028697967528 -0.05353948473930359
		endloop
	endfacet
	facet normal 0.8807151775653745 -0.05228424555879634 -0.4707516687940025
		outer loop
			vertex 0.25354433059692383 1.8558028697967528 -0.10502148419618607
			vertex 0.1847326159477234 0.44005624055862425 -0.0765187218785286
			vertex 0.16625496745109558 0.44005624055862425 -0.11108800023794174
		endloop
	endfacet
	facet normal 0.8807151399363885 -0.05228424293583138 -0.47075173948425797
		outer loop
			vertex 0.16625496745109558 0.44005624055862425 -0.11108800023794174
			vertex 0.22818386554718018 1.8558028697967528 -0.15246760845184326
			vertex 0.25354433059692383 1.8558028697967528 -0.10502148419618607
		endloop
	endfacet
	facet normal 0.7719532249810548 -0.052284249596382115 -0.6335255130501788
		outer loop
			vertex 0.22818386554718018 1.8558028697967528 -0.15246760845184326
			vertex 0.16625496745109558 0.44005624055862425 -0.11108800023794174
			vertex 0.14138822257518768 0.44005624055862425 -0.14138822257518768
		endloop
	endfacet
	facet normal 0.771953179554849 -0.05228424724611582 -0.6335255685961431
		outer loop
			vertex 0.14138822257518768 0.44005624055862425 -0.14138822257518768
			vertex 0.19405442476272583 1.8558028697967528 -0.19405445456504822
			vertex 0.22818386554718018 1.8558028697967528 -0.15246760845184326
		endloop
	endfacet
	facet normal 0.633525513043976 -0.052284249783131696 -0.7719532249734968
		outer loop
			vertex 0.19405442476272583 1.8558028697967528 -0.19405445456504822
			vertex 0.14138822257518768 0.44005624055862425 -0.14138822257518768
			vertex 0.11108800023794174 0.44005624055862425 -0.16625496745109558
		endloop
	endfacet
	facet normal 0.6335255980306865 -0.05228425338923521 -0.7719531549824713
		outer loop
			vertex 0.11108800023794174 0.44005624055862425 -0.16625496745109558
			vertex 0.15246756374835968 1.8558028697967528 -0.22818391025066376
			vertex 0.19405442476272583 1.8558028697967528 -0.19405445456504822
		endloop
	endfacet
	facet normal 0.4707519637816244 -0.05228425715533777 -0.8807150192028398
		outer loop
			vertex 0.15246756374835968 1.8558028697967528 -0.22818391025066376
			vertex 0.11108800023794174 0.44005624055862425 -0.16625496745109558
			vertex 0.0765187218785286 0.44005624055862425 -0.18473263084888458
		endloop
	endfacet
	facet normal 0.47075201172250397 -0.052284258937451214 -0.880714993472109
		outer loop
			vertex 0.0765187218785286 0.44005624055862425 -0.18473263084888458
			vertex 0.10502144694328308 1.8558028697967528 -0.2535443902015686
			vertex 0.15246756374835968 1.8558028697967528 -0.22818391025066376
		endloop
	endfacet
	facet normal 0.2898871544214262 -0.05228426147658232 -0.9556316202927237
		outer loop
			vertex 0.10502144694328308 1.8558028697967528 -0.2535443902015686
			vertex 0.0765187218785286 0.44005624055862425 -0.18473263084888458
			vertex 0.03900887444615364 0.44005624055862425 -0.19611109793186188
		endloop
	endfacet
	facet normal 0.28988752224893705 -0.05228427407297617 -0.9556315080244235
		outer loop
			vertex 0.03900887444615364 0.44005624055862425 -0.19611109793186188
			vertex 0.053539425134658813 1.8558028697967528 -0.26916128396987915
			vertex 0.10502144694328308 1.8558028697967528 -0.2535443902015686
		endloop
	endfacet
	facet normal 0.09788296787568028 -0.052284277589391095 -0.9938235652855107
		outer loop
			vertex 0.053539425134658813 1.8558028697967528 -0.26916128396987915
			vertex 0.03900887444615364 0.44005624055862425 -0.19611109793186188
			vertex -6.515300299270166e-8 0.44005624055862425 -0.1999531388282776
		endloop
	endfacet
	facet normal 0.09788217077360731 -0.0522842513505439 -0.9938236451732065
		outer loop
			vertex -6.515300299270166e-8 0.44005624055862425 -0.1999531388282776
			vertex -9.826625557707303e-8 1.8558028697967528 -0.2744344174861908
			vertex 0.053539425134658813 1.8558028697967528 -0.26916128396987915
		endloop
	endfacet
	facet normal -0.0978833438081379 -0.05228424985537068 -0.99382352971843
		outer loop
			vertex -9.826625557707303e-8 1.8558028697967528 -0.2744344174861908
			vertex -6.515300299270166e-8 0.44005624055862425 -0.1999531388282776
			vertex -0.03900900483131409 0.44005624055862425 -0.19611108303070068
		endloop
	endfacet
	facet normal -0.09788327839437488 -0.05228425200791982 -0.993823536047895
		outer loop
			vertex -0.03900900483131409 0.44005624055862425 -0.19611108303070068
			vertex -0.053539615124464035 1.8558028697967528 -0.2691612243652344
			vertex -9.826625557707303e-8 1.8558028697967528 -0.2744344174861908
		endloop
	endfacet
	facet normal -0.2898882765891618 -0.05228425209983323 -0.9556312803997818
		outer loop
			vertex -0.053539615124464035 1.8558028697967528 -0.2691612243652344
			vertex -0.03900900483131409 0.44005624055862425 -0.19611108303070068
			vertex -0.07651884108781815 0.44005624055862425 -0.1847325712442398
		endloop
	endfacet
	facet normal -0.28988804826084014 -0.05228425991089884 -0.9556313492352008
		outer loop
			vertex -0.07651884108781815 0.44005624055862425 -0.1847325712442398
			vertex -0.105021633207798 1.8558028697967528 -0.25354430079460144
			vertex -0.053539615124464035 1.8558028697967528 -0.2691612243652344
		endloop
	endfacet
	facet normal -0.4707523378793662 -0.05228426078214044 -0.8807148190280304
		outer loop
			vertex -0.105021633207798 1.8558028697967528 -0.25354430079460144
			vertex -0.07651884108781815 0.44005624055862425 -0.1847325712442398
			vertex -0.1110881119966507 0.44005624055862425 -0.1662548929452896
		endloop
	endfacet
	facet normal -0.470752184025569 -0.052284266490898394 -0.8807149009257565
		outer loop
			vertex -0.1110881119966507 0.44005624055862425 -0.1662548929452896
			vertex -0.1524677276611328 1.8558028697967528 -0.2281838208436966
			vertex -0.105021633207798 1.8558028697967528 -0.25354430079460144
		endloop
	endfacet
	facet normal -0.6335260186165564 -0.05228426576006637 -0.7719528089784928
		outer loop
			vertex -0.1524677276611328 1.8558028697967528 -0.2281838208436966
			vertex -0.1110881119966507 0.44005624055862425 -0.1662548929452896
			vertex -0.14138831198215485 0.44005624055862425 -0.14138813316822052
		endloop
	endfacet
	facet normal -0.6335260638907714 -0.052284263844416125 -0.771952771952607
		outer loop
			vertex -0.14138831198215485 0.44005624055862425 -0.14138813316822052
			vertex -0.19405457377433777 1.8558028697967528 -0.19405433535575867
			vertex -0.1524677276611328 1.8558028697967528 -0.2281838208436966
		endloop
	endfacet
	facet normal -0.7719535633840584 -0.05228426324116354 -0.6335250995785278
		outer loop
			vertex -0.19405457377433777 1.8558028697967528 -0.19405433535575867
			vertex -0.14138831198215485 0.44005624055862425 -0.14138813316822052
			vertex -0.16625504195690155 0.44005624055862425 -0.11108789592981339
		endloop
	endfacet
	facet normal -0.7719537846145524 -0.05228425184282385 -0.6335248309486419
		outer loop
			vertex -0.16625504195690155 0.44005624055862425 -0.11108789592981339
			vertex -0.22818398475646973 1.8558028697967528 -0.15246744453907013
			vertex -0.19405457377433777 1.8558028697967528 -0.19405433535575867
		endloop
	endfacet
	facet normal -0.8807154196467191 -0.052284247850288054 -0.47075121563649003
		outer loop
			vertex -0.22818398475646973 1.8558028697967528 -0.15246744453907013
			vertex -0.16625504195690155 0.44005624055862425 -0.11108789592981339
			vertex -0.18473267555236816 0.44005624055862425 -0.07651860266923904
		endloop
	endfacet
	facet normal -0.8807151696424236 -0.052284265165646326 -0.4707516814391695
		outer loop
			vertex -0.18473267555236816 0.44005624055862425 -0.07651860266923904
			vertex -0.2535444498062134 1.8558028697967528 -0.10502131283283234
			vertex -0.22818398475646973 1.8558028697967528 -0.15246744453907013
		endloop
	endfacet
	facet normal -0.955631733497272 -0.05228426645470353 -0.2898867803372417
		outer loop
			vertex -0.2535444498062134 1.8558028697967528 -0.10502131283283234
			vertex -0.18473267555236816 0.44005624055862425 -0.07651860266923904
			vertex -0.19611112773418427 0.44005624055862425 -0.03900875151157379
		endloop
	endfacet
	facet normal -0.9556318337935897 -0.052284255201517756 -0.28988645173295596
		outer loop
			vertex -0.19611112773418427 0.44005624055862425 -0.03900875151157379
			vertex -0.26916128396987915 1.8558028697967528 -0.05353927984833717
			vertex -0.2535444498062134 1.8558028697967528 -0.10502131283283234
		endloop
	endfacet
	facet normal -0.9938236419418774 -0.05228425123507215 -0.09788220364382381
		outer loop
			vertex -0.26916128396987915 1.8558028697967528 -0.05353927984833717
			vertex -0.19611112773418427 0.44005624055862425 -0.03900875151157379
			vertex -0.1999531388282776 0.44005624055862425 1.9307458387629595e-7
		endloop
	endfacet
	facet normal -0.9938236452746083 -0.05228425014044334 -0.0978821703904299
		outer loop
			vertex -0.1999531388282776 0.44005624055862425 1.9307458387629595e-7
			vertex -0.2744344174861908 1.8558028697967528 2.437676300814928e-7
			vertex -0.26916128396987915 1.8558028697967528 -0.05353927984833717
		endloop
	endfacet
	facet normal -0.993823454576981 -0.052284247117717356 0.09788410818927064
		outer loop
			vertex -0.2744344174861908 1.8558028697967528 2.437676300814928e-7
			vertex -0.1999531388282776 0.44005624055862425 1.9307458387629595e-7
			vertex -0.1961110532283783 0.44005624055862425 0.039009127765893936
		endloop
	endfacet
	facet normal -0.993823482471835 -0.05228425660424962 0.0978838199034725
		outer loop
			vertex -0.1961110532283783 0.44005624055862425 0.039009127765893936
			vertex -0.269161194562912 1.8558028697967528 0.053539764136075974
			vertex -0.2744344174861908 1.8558028697967528 2.437676300814928e-7
		endloop
	endfacet
	facet normal -0.9556311667791658 -0.05228425541488277 0.2898886505470703
		outer loop
			vertex -0.269161194562912 1.8558028697967528 0.053539764136075974
			vertex -0.1961110532283783 0.44005624055862425 0.039009127765893936
			vertex -0.18473252654075623 0.44005624055862425 0.0765189602971077
		endloop
	endfacet
	facet normal -0.9556311724481635 -0.052284256058168624 0.28988863174293705
		outer loop
			vertex -0.18473252654075623 0.44005624055862425 0.0765189602971077
			vertex -0.25354424118995667 1.8558028697967528 0.10502176731824875
			vertex -0.269161194562912 1.8558028697967528 0.053539764136075974
		endloop
	endfacet
	facet normal -0.8807144194130611 -0.05228425211516217 0.4707530864674953
		outer loop
			vertex -0.25354424118995667 1.8558028697967528 0.10502176731824875
			vertex -0.18473252654075623 0.44005624055862425 0.0765189602971077
			vertex -0.16625481843948364 0.44005624055862425 0.11108821630477905
		endloop
	endfacet
	facet normal -0.8807143802779042 -0.052284249387211164 0.4707531599869756
		outer loop
			vertex -0.16625481843948364 0.44005624055862425 0.11108821630477905
			vertex -0.22818370163440704 1.8558028697967528 0.15246784687042236
			vertex -0.25354424118995667 1.8558028697967528 0.10502176731824875
		endloop
	endfacet
	facet normal -0.7719524708485207 -0.05228424535377999 0.6335264323125355
		outer loop
			vertex -0.22818370163440704 1.8558028697967528 0.15246784687042236
			vertex -0.16625481843948364 0.44005624055862425 0.11108821630477905
			vertex -0.14138804376125336 0.44005624055862425 0.141388401389122
		endloop
	endfacet
	facet normal -0.7719521680878405 -0.05228422968951711 0.6335268025192435
		outer loop
			vertex -0.14138804376125336 0.44005624055862425 0.141388401389122
			vertex -0.19405418634414673 1.8558028697967528 0.19405464828014374
			vertex -0.22818370163440704 1.8558028697967528 0.15246784687042236
		endloop
	endfacet
	facet normal -0.6335245947395314 -0.05228422517218633 0.7719539802723067
		outer loop
			vertex -0.19405418634414673 1.8558028697967528 0.19405464828014374
			vertex -0.14138804376125336 0.44005624055862425 0.141388401389122
			vertex -0.11108778417110443 0.44005624055862425 0.16625511646270752
		endloop
	endfacet
	facet normal -0.6335248315008117 -0.052284235218293104 0.7719537852873747
		outer loop
			vertex -0.11108778417110443 0.44005624055862425 0.16625511646270752
			vertex -0.1524672955274582 1.8558028697967528 0.2281840592622757
			vertex -0.19405418634414673 1.8558028697967528 0.19405464828014374
		endloop
	endfacet
	facet normal -0.4707505465759373 -0.05228423159349552 0.8807157782310557
		outer loop
			vertex -0.1524672955274582 1.8558028697967528 0.2281840592622757
			vertex -0.11108778417110443 0.44005624055862425 0.16625511646270752
			vertex -0.0765184834599495 0.44005624055862425 0.18473272025585175
		endloop
	endfacet
	facet normal -0.4707503767533865 -0.05228422528065237 0.8807158693774891
		outer loop
			vertex -0.0765184834599495 0.44005624055862425 0.18473272025585175
			vertex -0.10502113401889801 1.8558028697967528 0.2535444498062134
			vertex -0.1524672955274582 1.8558028697967528 0.2281840592622757
		endloop
	endfacet
	facet normal 0 -1 0
		outer loop
			vertex 0.07651875913143158 0.44005624055862425 0.1847326010465622
			vertex 0.03900892287492752 0.44005624055862425 0.19611108303070068
			vertex 0 0.44005624055862425 0.1999531388282776
		endloop
	endfacet
	facet normal 0 -1 0
		outer loop
			vertex 0 0.44005624055862425 0.1999531388282776
			vertex -0.039008621126413345 0.44005624055862425 0.19611114263534546
			vertex -0.0765184834599495 0.44005624055862425 0.18473272025585175
		endloop
	endfacet
	facet normal 0 -1 0
		outer loop
			vertex -0.0765184834599495 0.44005624055862425 0.18473272025585175
			vertex -0.11108778417110443 0.44005624055862425 0.16625511646270752
			vertex -0.14138804376125336 0.44005624055862425 0.141388401389122
		endloop
	endfacet
	facet normal 0 -1 0
		outer loop
			vertex -0.14138804376125336 0.44005624055862425 0.141388401389122
			vertex -0.16625481843948364 0.44005624055862425 0.11108821630477905
			vertex -0.18473252654075623 0.44005624055862425 0.0765189602971077
		endloop
	endfacet
	facet normal 0 -1 0
		outer loop
			vertex -0.18473252654075623 0.44005624055862425 0.0765189602971077
			vertex -0.1961110532283783 0.44005624055862425 0.039009127765893936
			vertex -0.1999531388282776 0.44005624055862425 1.9307458387629595e-7
		endloop
	endfacet
	facet normal 0 -1 0
		outer loop
			vertex -0.1999531388282776 0.44005624055862425 1.9307458387629595e-7
			vertex -0.19611112773418427 0.44005624055862425 -0.03900875151157379
			vertex -0.18473267555236816 0.44005624055862425 -0.07651860266923904
		endloop
	endfacet
	facet normal 0 -1 0
		outer loop
			vertex -0.18473267555236816 0.44005624055862425 -0.07651860266923904
			vertex -0.16625504195690155 0.44005624055862425 -0.11108789592981339
			vertex -0.14138831198215485 0.44005624055862425 -0.14138813316822052
		endloop
	endfacet
	facet normal 0 -1 0
		outer loop
			vertex -0.14138831198215485 0.44005624055862425 -0.14138813316822052
			vertex -0.1110881119966507 0.44005624055862425 -0.1662548929452896
			vertex -0.07651884108781815 0.44005624055862425 -0.1847325712442398
		endloop
	endfacet
	facet normal 0 -1 0
		outer loop
			vertex -0.07651884108781815 0.44005624055862425 -0.1847325712442398
			vertex -0.03900900483131409 0.44005624055862425 -0.19611108303070068
			vertex -6.515300299270166e-8 0.44005624055862425 -0.1999531388282776
		endloop
	endfacet
	facet normal 0 -1 0
		outer loop
			vertex -6.515300299270166e-8 0.44005624055862425 -0.1999531388282776
			vertex 0.03900887444615364 0.44005624055862425 -0.19611109793186188
			vertex 0.0765187218785286 0.44005624055862425 -0.18473263084888458
		endloop
	endfacet
	facet normal 0 -1 0
		outer loop
			vertex 0.0765187218785286 0.44005624055862425 -0.18473263084888458
			vertex 0.11108800023794174 0.44005624055862425 -0.16625496745109558
			vertex 0.14138822257518768 0.44005624055862425 -0.14138822257518768
		endloop
	endfacet
	facet normal 0 -1 0
		outer loop
			vertex 0.14138822257518768 0.44005624055862425 -0.14138822257518768
			vertex 0.16625496745109558 0.44005624055862425 -0.11108800023794174
			vertex 0.1847326159477234 0.44005624055862425 -0.0765187218785286
		endloop
	endfacet
	facet normal 0 -1 0
		outer loop
			vertex 0.1847326159477234 0.44005624055862425 -0.0765187218785286
			vertex 0.19611109793186188 0.44005624055862425 -0.03900890052318573
			vertex 0.1999531388282776 0.44005624055862425 1.509604174998458e-8
		endloop
	endfacet
	facet normal 0 -1 0
		outer loop
			vertex 0.1999531388282776 0.44005624055862425 1.509604174998458e-8
			vertex 0.19611108303070068 0.44005624055862425 0.03900893032550812
			vertex 0.1847326010465622 0.44005624055862425 0.07651875168085098
		endloop
	endfacet
	facet normal 0 -1 0
		outer loop
			vertex 0.1847326010465622 0.44005624055862425 0.07651875168085098
			vertex 0.16625496745109558 0.44005624055862425 0.11108800023794174
			vertex 0.14138822257518768 0.44005624055862425 0.14138822257518768
		endloop
	endfacet
	facet normal 0 -1 0
		outer loop
			vertex 0.14138822257518768 0.44005624055862425 0.14138822257518768
			vertex 0.11108801513910294 0.44005624055862425 0.1662549525499344
			vertex 0.07651875913143158 0.44005624055862425 0.1847326010465622
		endloop
	endfacet
	facet normal 0 -1 0
		outer loop
			vertex 0.07651875913143158 0.44005624055862425 0.1847326010465622
			vertex 0 0.44005624055862425 0.1999531388282776
			vertex -0.0765184834599495 0.44005624055862425 0.18473272025585175
		endloop
	endfacet
	facet normal 0 -1 0
		outer loop
			vertex -0.0765184834599495 0.44005624055862425 0.18473272025585175
			vertex -0.14138804376125336 0.44005624055862425 0.141388401389122
			vertex -0.18473252654075623 0.44005624055862425 0.0765189602971077
		endloop
	endfacet
	facet normal 0 -1 0
		outer loop
			vertex -0.18473252654075623 0.44005624055862425 0.0765189602971077
			vertex -0.1999531388282776 0.44005624055862425 1.9307458387629595e-7
			vertex -0.18473267555236816 0.44005624055862425 -0.07651860266923904
		endloop
	endfacet
	facet normal 0 -1 0
		outer loop
			vertex -0.18473267555236816 0.44005624055862425 -0.07651860266923904
			vertex -0.14138831198215485 0.44005624055862425 -0.14138813316822052
			vertex -0.07651884108781815 0.44005624055862425 -0.1847325712442398
		endloop
	endfacet
	facet normal 0 -1 0
		outer loop
			vertex -0.07651884108781815 0.44005624055862425 -0.1847325712442398
			vertex -6.515300299270166e-8 0.44005624055862425 -0.1999531388282776
			vertex 0.0765187218785286 0.44005624055862425 -0.18473263084888458
		endloop
	endfacet
	facet normal 0 -1 0
		outer loop
			vertex 0.0765187218785286 0.44005624055862425 -0.18473263084888458
			vertex 0.14138822257518768 0.44005624055862425 -0.14138822257518768
			vertex 0.1847326159477234 0.44005624055862425 -0.0765187218785286
		endloop
	endfacet
	facet normal 0 -1 0
		outer loop
			vertex 0.1847326159477234 0.44005624055862425 -0.0765187218785286
			vertex 0.1999531388282776 0.44005624055862425 1.509604174998458e-8
			vertex 0.1847326010465622 0.44005624055862425 0.07651875168085098
		endloop
	endfacet
	facet normal 0 -1 0
		outer loop
			vertex 0.1847326010465622 0.44005624055862425 0.07651875168085098
			vertex 0.14138822257518768 0.44005624055862425 0.14138822257518768
			vertex 0.07651875913143158 0.44005624055862425 0.1847326010465622
		endloop
	endfacet
	facet normal 0 -1 0
		outer loop
			vertex 0.07651875913143158 0.44005624055862425 0.1847326010465622
			vertex -0.0765184834599495 0.44005624055862425 0.18473272025585175
			vertex -0.18473252654075623 0.44005624055862425 0.0765189602971077
		endloop
	endfacet
	facet normal 0 -1 0
		outer loop
			vertex -0.18473252654075623 0.44005624055862425 0.0765189602971077
			vertex -0.18473267555236816 0.44005624055862425 -0.07651860266923904
			vertex -0.07651884108781815 0.44005624055862425 -0.1847325712442398
		endloop
	endfacet
	facet normal 0 -1 0
		outer loop
			vertex -0.07651884108781815 0.44005624055862425 -0.1847325712442398
			vertex 0.0765187218785286 0.44005624055862425 -0.18473263084888458
			vertex 0.1847326159477234 0.44005624055862425 -0.0765187218785286
		endloop
	endfacet
	facet normal 0 -1 0
		outer loop
			vertex 0.1847326159477234 0.44005624055862425 -0.0765187218785286
			vertex 0.1847326010465622 0.44005624055862425 0.07651875168085098
			vertex 0.07651875913143158 0.44005624055862425 0.1847326010465622
		endloop
	endfacet
	facet normal 0 -1 0
		outer loop
			vertex 0.07651875913143158 0.44005624055862425 0.1847326010465622
			vertex -0.18473252654075623 0.44005624055862425 0.0765189602971077
			vertex -0.07651884108781815 0.44005624055862425 -0.1847325712442398
		endloop
	endfacet
	facet normal 0 -1 0
		outer loop
			vertex -0.07651884108781815 0.44005624055862425 -0.1847325712442398
			vertex 0.1847326159477234 0.44005624055862425 -0.0765187218785286
			vertex 0.07651875913143158 0.44005624055862425 0.1847326010465622
		endloop
	endfacet
	facet normal -0.2898860066615325 -0.05228422002958233 0.9556319707281292
		outer loop
			vertex -0.10502113401889801 1.8558028697967528 0.2535444498062134
			vertex -0.0765184834599495 0.44005624055862425 0.18473272025585175
			vertex -0.039008621126413345 0.44005624055862425 0.19611114263534546
		endloop
	endfacet
	facet normal -0.2898863944390003 -0.052284233309173 0.9556318523712091
		outer loop
			vertex -0.039008621126413345 0.44005624055862425 0.19611114263534546
			vertex -0.05353908985853195 1.8558028697967528 0.26916128396987915
			vertex -0.10502113401889801 1.8558028697967528 0.2535444498062134
		endloop
	endfacet
	facet normal -0.09788242399686106 -0.05228423207209687 0.9938236212473165
		outer loop
			vertex 0 0.44005624055862425 0.1999531388282776
			vertex -8.84417605817589e-9 1.8558028697967528 0.2744343876838684
			vertex -0.05353908985853195 1.8558028697967528 0.26916128396987915
		endloop
	endfacet
	facet normal -0.09788263155935682 -0.05228423890453964 0.9938236004448618
		outer loop
			vertex -0.05353908985853195 1.8558028697967528 0.26916128396987915
			vertex -0.039008621126413345 0.44005624055862425 0.19611114263534546
			vertex 0 0.44005624055862425 0.1999531388282776
		endloop
	endfacet
	facet normal 0 1 0
		outer loop
			vertex -0.05353908985853195 1.8558028697967528 0.26916128396987915
			vertex -8.84417605817589e-9 1.8558028697967528 0.2744343876838684
			vertex 0.05353948846459389 1.8558028697967528 0.269161194562912
		endloop
	endfacet
	facet normal 0 1 0
		outer loop
			vertex 0.05353948846459389 1.8558028697967528 0.269161194562912
			vertex 0.10502150654792786 1.8558028697967528 0.25354430079460144
			vertex 0.15246757864952087 1.8558028697967528 0.2281838357448578
		endloop
	endfacet
	facet normal 0 1 0
		outer loop
			vertex 0.15246757864952087 1.8558028697967528 0.2281838357448578
			vertex 0.19405442476272583 1.8558028697967528 0.19405439496040344
			vertex 0.22818386554718018 1.8558028697967528 0.1524675488471985
		endloop
	endfacet
	facet normal 0 1 0
		outer loop
			vertex 0.22818386554718018 1.8558028697967528 0.1524675488471985
			vertex 0.25354433059692383 1.8558028697967528 0.10502148419618607
			vertex 0.269161194562912 1.8558028697967528 0.05353948846459389
		endloop
	endfacet
	facet normal 0 1 0
		outer loop
			vertex 0.269161194562912 1.8558028697967528 0.05353948846459389
			vertex 0.2744344174861908 1.8558028697967528 -5.068053754442303e-10
			vertex 0.2691612243652344 1.8558028697967528 -0.05353948473930359
		endloop
	endfacet
	facet normal 0 1 0
		outer loop
			vertex 0.2691612243652344 1.8558028697967528 -0.05353948473930359
			vertex 0.25354433059692383 1.8558028697967528 -0.10502148419618607
			vertex 0.22818386554718018 1.8558028697967528 -0.15246760845184326
		endloop
	endfacet
	facet normal 0 1 0
		outer loop
			vertex 0.22818386554718018 1.8558028697967528 -0.15246760845184326
			vertex 0.19405442476272583 1.8558028697967528 -0.19405445456504822
			vertex 0.15246756374835968 1.8558028697967528 -0.22818391025066376
		endloop
	endfacet
	facet normal 0 1 0
		outer loop
			vertex 0.15246756374835968 1.8558028697967528 -0.22818391025066376
			vertex 0.10502144694328308 1.8558028697967528 -0.2535443902015686
			vertex 0.053539425134658813 1.8558028697967528 -0.26916128396987915
		endloop
	endfacet
	facet normal 0 1 0
		outer loop
			vertex 0.053539425134658813 1.8558028697967528 -0.26916128396987915
			vertex -9.826625557707303e-8 1.8558028697967528 -0.2744344174861908
			vertex -0.053539615124464035 1.8558028697967528 -0.2691612243652344
		endloop
	endfacet
	facet normal 0 1 0
		outer loop
			vertex -0.053539615124464035 1.8558028697967528 -0.2691612243652344
			vertex -0.105021633207798 1.8558028697967528 -0.25354430079460144
			vertex -0.1524677276611328 1.8558028697967528 -0.2281838208436966
		endloop
	endfacet
	facet normal 0 1 0
		outer loop
			vertex -0.1524677276611328 1.8558028697967528 -0.2281838208436966
			vertex -0.19405457377433777 1.8558028697967528 -0.19405433535575867
			vertex -0.22818398475646973 1.8558028697967528 -0.15246744453907013
		endloop
	endfacet
	facet normal 0 1 0
		outer loop
			vertex -0.22818398475646973 1.8558028697967528 -0.15246744453907013
			vertex -0.2535444498062134 1.8558028697967528 -0.10502131283283234
			vertex -0.26916128396987915 1.8558028697967528 -0.05353927984833717
		endloop
	endfacet
	facet normal 0 1 0
		outer loop
			vertex -0.26916128396987915 1.8558028697967528 -0.05353927984833717
			vertex -0.2744344174861908 1.8558028697967528 2.437676300814928e-7
			vertex -0.269161194562912 1.8558028697967528 0.053539764136075974
		endloop
	endfacet
	facet normal 0 1 0
		outer loop
			vertex -0.269161194562912 1.8558028697967528 0.053539764136075974
			vertex -0.25354424118995667 1.8558028697967528 0.10502176731824875
			vertex -0.22818370163440704 1.8558028697967528 0.15246784687042236
		endloop
	endfacet
	facet normal 0 1 0
		outer loop
			vertex -0.22818370163440704 1.8558028697967528 0.15246784687042236
			vertex -0.19405418634414673 1.8558028697967528 0.19405464828014374
			vertex -0.1524672955274582 1.8558028697967528 0.2281840592622757
		endloop
	endfacet
	facet normal 0 1 0
		outer loop
			vertex -0.1524672955274582 1.8558028697967528 0.2281840592622757
			vertex -0.10502113401889801 1.8558028697967528 0.2535444498062134
			vertex -0.05353908985853195 1.8558028697967528 0.26916128396987915
		endloop
	endfacet
	facet normal 0 1 0
		outer loop
			vertex -0.05353908985853195 1.8558028697967528 0.26916128396987915
			vertex 0.05353948846459389 1.8558028697967528 0.269161194562912
			vertex 0.15246757864952087 1.8558028697967528 0.2281838357448578
		endloop
	endfacet
	facet normal 0 1 0
		outer loop
			vertex 0.15246757864952087 1.8558028697967528 0.2281838357448578
			vertex 0.22818386554718018 1.8558028697967528 0.1524675488471985
			vertex 0.269161194562912 1.8558028697967528 0.05353948846459389
		endloop
	endfacet
	facet normal 0 1 0
		outer loop
			vertex 0.269161194562912 1.8558028697967528 0.05353948846459389
			vertex 0.2691612243652344 1.8558028697967528 -0.05353948473930359
			vertex 0.22818386554718018 1.8558028697967528 -0.15246760845184326
		endloop
	endfacet
	facet normal 0 1 0
		outer loop
			vertex 0.22818386554718018 1.8558028697967528 -0.15246760845184326
			vertex 0.15246756374835968 1.8558028697967528 -0.22818391025066376
			vertex 0.053539425134658813 1.8558028697967528 -0.26916128396987915
		endloop
	endfacet
	facet normal 0 1 0
		outer loop
			vertex 0.053539425134658813 1.8558028697967528 -0.26916128396987915
			vertex -0.053539615124464035 1.8558028697967528 -0.2691612243652344
			vertex -0.1524677276611328 1.8558028697967528 -0.2281838208436966
		endloop
	endfacet
	facet normal 0 1 0
		outer loop
			vertex -0.1524677276611328 1.8558028697967528 -0.2281838208436966
			vertex -0.22818398475646973 1.8558028697967528 -0.15246744453907013
			vertex -0.26916128396987915 1.8558028697967528 -0.05353927984833717
		endloop
	endfacet
	facet normal 0 1 0
		outer loop
			vertex -0.26916128396987915 1.8558028697967528 -0.05353927984833717
			vertex -0.269161194562912 1.8558028697967528 0.053539764136075974
			vertex -0.22818370163440704 1.8558028697967528 0.15246784687042236
		endloop
	endfacet
	facet normal 0 1 0
		outer loop
			vertex -0.22818370163440704 1.8558028697967528 0.15246784687042236
			vertex -0.1524672955274582 1.8558028697967528 0.2281840592622757
			vertex -0.05353908985853195 1.8558028697967528 0.26916128396987915
		endloop
	endfacet
	facet normal 0 1 0
		outer loop
			vertex -0.05353908985853195 1.8558028697967528 0.26916128396987915
			vertex 0.15246757864952087 1.8558028697967528 0.2281838357448578
			vertex 0.269161194562912 1.8558028697967528 0.05353948846459389
		endloop
	endfacet
	facet normal 0 1 0
		outer loop
			vertex 0.269161194562912 1.8558028697967528 0.05353948846459389
			vertex 0.22818386554718018 1.8558028697967528 -0.15246760845184326
			vertex 0.053539425134658813 1.8558028697967528 -0.26916128396987915
		endloop
	endfacet
	facet normal 0 1 0
		outer loop
			vertex 0.053539425134658813 1.8558028697967528 -0.26916128396987915
			vertex -0.1524677276611328 1.8558028697967528 -0.2281838208436966
			vertex -0.26916128396987915 1.8558028697967528 -0.05353927984833717
		endloop
	endfacet
	facet normal 0 1 0
		outer loop
			vertex -0.26916128396987915 1.8558028697967528 -0.05353927984833717
			vertex -0.22818370163440704 1.8558028697967528 0.15246784687042236
			vertex -0.05353908985853195 1.8558028697967528 0.26916128396987915
		endloop
	endfacet
	facet normal 0 1 0
		outer loop
			vertex -0.05353908985853195 1.8558028697967528 0.26916128396987915
			vertex 0.269161194562912 1.8558028697967528 0.05353948846459389
			vertex 0.053539425134658813 1.8558028697967528 -0.26916128396987915
		endloop
	endfacet
	facet normal 0 1 0
		outer loop
			vertex 0.053539425134658813 1.8558028697967528 -0.26916128396987915
			vertex -0.26916128396987915 1.8558028697967528 -0.05353927984833717
			vertex -0.05353908985853195 1.8558028697967528 0.26916128396987915
		endloop
	endfacet
	facet normal 0 1 0
		outer loop
			vertex 0.17772570252418518 -2.241197299957275 0.177725687623024
			vertex 0.17772570252418518 -2.241197299957275 -0.17772570252418518
			vertex -0.17772571742534637 -2.241197299957275 -0.1777256727218628
		endloop
	endfacet
	facet normal 0 1 0
		outer loop
			vertex -0.17772571742534637 -2.241197299957275 -0.1777256727218628
			vertex -0.1777256429195404 -2.241197299957275 0.17772576212882996
			vertex 0.17772570252418518 -2.241197299957275 0.177725687623024
		endloop
	endfacet
	facet normal 0 -1 0
		outer loop
			vertex 0.09278255701065063 -2.4505045890808104 0.09278246015310287
			vertex -0.09278251975774765 -2.4505045890808104 0.09278251230716705
			vertex -0.09278256446123123 -2.4505045890808104 -0.09278250485658646
		endloop
	endfacet
	facet normal 0 -1 0
		outer loop
			vertex -0.09278256446123123 -2.4505045890808104 -0.09278250485658646
			vertex 0.09278244525194168 -2.4505045890808104 -0.09278259426355362
			vertex 0.09278255701065063 -2.4505045890808104 0.09278246015310287
		endloop
	endfacet
	facet normal 0.9266023495041165 -0.37604266499047634 -5.580570254444188e-7
		outer loop
			vertex 0.17772570252418518 -2.241197299957275 0.177725687623024
			vertex 0.09278255701065063 -2.4505045890808104 0.09278246015310287
			vertex 0.09278244525194168 -2.4505045890808104 -0.09278259426355362
		endloop
	endfacet
	facet normal 0.9266020981967018 -0.3760432842339691 0
		outer loop
			vertex 0.09278244525194168 -2.4505045890808104 -0.09278259426355362
			vertex 0.17772570252418518 -2.241197299957275 -0.17772570252418518
			vertex 0.17772570252418518 -2.241197299957275 0.177725687623024
		endloop
	endfacet
	facet normal -4.46445747989074e-7 -0.37604256228294053 -0.9266023911859289
		outer loop
			vertex 0.17772570252418518 -2.241197299957275 -0.17772570252418518
			vertex 0.09278244525194168 -2.4505045890808104 -0.09278259426355362
			vertex -0.09278256446123123 -2.4505045890808104 -0.09278250485658646
		endloop
	endfacet
	facet normal -7.768965514970175e-8 -0.3760429714702279 -0.9266022251256659
		outer loop
			vertex -0.09278256446123123 -2.4505045890808104 -0.09278250485658646
			vertex -0.17772571742534637 -2.241197299957275 -0.1777256727218628
			vertex 0.17772570252418518 -2.241197299957275 -0.17772570252418518
		endloop
	endfacet
	facet normal -0.9266022906629733 -0.37604280998056727 2.2322284081551217e-7
		outer loop
			vertex -0.17772571742534637 -2.241197299957275 -0.1777256727218628
			vertex -0.09278256446123123 -2.4505045890808104 -0.09278250485658646
			vertex -0.09278251975774765 -2.4505045890808104 0.09278251230716705
		endloop
	endfacet
	facet normal -0.9266022776041203 -0.37604284215873474 1.9422414073198473e-7
		outer loop
			vertex -0.09278251975774765 -2.4505045890808104 0.09278251230716705
			vertex -0.1777256429195404 -2.241197299957275 0.17772576212882996
			vertex -0.17772571742534637 -2.241197299957275 -0.1777256727218628
		endloop
	endfacet
	facet normal 1.942241558591044e-7 -0.3760432386318146 0.9266021167034201
		outer loop
			vertex 0.09278255701065063 -2.4505045890808104 0.09278246015310287
			vertex 0.17772570252418518 -2.241197299957275 0.177725687623024
			vertex -0.1777256429195404 -2.241197299957275 0.17772576212882996
		endloop
	endfacet
	facet normal 2.604265234541882e-7 -0.37604316517092573 0.9266021465160568
		outer loop
			vertex -0.1777256429195404 -2.241197299957275 0.17772576212882996
			vertex -0.09278251975774765 -2.4505045890808104 0.09278251230716705
			vertex 0.09278255701065063 -2.4505045890808104 0.09278246015310287
		endloop
	endfacet
	facet normal 0 1 0
		outer loop
			vertex 0.2943424880504608 -1.89028525352478 0.2943424582481384
			vertex 0.2943424880504608 -1.89028525352478 -0.2943424880504608
			vertex -0.2943425178527832 -1.89028525352478 -0.29434242844581604
		endloop
	endfacet
	facet normal 0 1 0
		outer loop
			vertex -0.2943425178527832 -1.89028525352478 -0.29434242844581604
			vertex -0.29434236884117126 -1.89028525352478 0.29434260725975037
			vertex 0.2943424880504608 -1.89028525352478 0.2943424582481384
		endloop
	endfacet
	facet normal 0 -1 0
		outer loop
			vertex 0.15366290509700775 -2.2369318008422847 0.15366274118423462
			vertex -0.15366286039352417 -2.2369318008422847 0.15366283059120178
			vertex -0.15366291999816895 -2.2369318008422847 -0.1536628156900406
		endloop
	endfacet
	facet normal 0 -1 0
		outer loop
			vertex -0.15366291999816895 -2.2369318008422847 -0.1536628156900406
			vertex 0.15366272628307343 -2.2369318008422847 -0.15366297960281372
			vertex 0.15366290509700775 -2.2369318008422847 0.15366274118423462
		endloop
	endfacet
	facet normal 0.9266022843847252 -0.3760428254503976 -5.391328770079103e-7
		outer loop
			vertex 0.2943424880504608 -1.89028525352478 0.2943424582481384
			vertex 0.15366290509700775 -2.2369318008422847 0.15366274118423462
			vertex 0.15366272628307343 -2.2369318008422847 -0.15366297960281372
		endloop
	endfacet
	facet normal 0.9266020415991458 -0.3760434236950498 0
		outer loop
			vertex 0.15366272628307343 -2.2369318008422847 -0.15366297960281372
			vertex 0.2943424880504608 -1.89028525352478 -0.2943424880504608
			vertex 0.2943424880504608 -1.89028525352478 0.2943424582481384
		endloop
	endfacet
	facet normal -4.942052906922156e-7 -0.37604267011006487 -0.9266023474264723
		outer loop
			vertex 0.2943424880504608 -1.89028525352478 -0.2943424880504608
			vertex 0.15366272628307343 -2.2369318008422847 -0.15366297960281372
			vertex -0.15366291999816895 -2.2369318008422847 -0.1536628156900406
		endloop
	endfacet
	facet normal -9.381892262515348e-8 -0.37604311439577937 -0.9266021671221766
		outer loop
			vertex -0.15366291999816895 -2.2369318008422847 -0.1536628156900406
			vertex -0.2943425178527832 -1.89028525352478 -0.29434242844581604
			vertex 0.2943424880504608 -1.89028525352478 -0.2943424880504608
		endloop
	endfacet
	facet normal -0.9266022196805649 -0.3760429848873898 1.7971099002133454e-7
		outer loop
			vertex -0.2943425178527832 -1.89028525352478 -0.29434242844581604
			vertex -0.15366291999816895 -2.2369318008422847 -0.1536628156900406
			vertex -0.15366286039352417 -2.2369318008422847 0.15366283059120178
		endloop
	endfacet
	facet normal -0.9266022443747751 -0.37604292403869893 2.3454731424352704e-7
		outer loop
			vertex -0.15366286039352417 -2.2369318008422847 0.15366283059120178
			vertex -0.29434236884117126 -1.89028525352478 0.29434260725975037
			vertex -0.2943425178527832 -1.89028525352478 -0.29434242844581604
		endloop
	endfacet
	facet normal 2.3454733630376112e-7 -0.3760434028243173 0.9266020500690971
		outer loop
			vertex 0.15366290509700775 -2.2369318008422847 0.15366274118423462
			vertex 0.2943424880504608 -1.89028525352478 0.2943424582481384
			vertex -0.29434236884117126 -1.89028525352478 0.29434260725975037
		endloop
	endfacet
	facet normal 2.6956633571379974e-7 -0.3760433639657767 0.9266020658390687
		outer loop
			vertex -0.29434236884117126 -1.89028525352478 0.29434260725975037
			vertex -0.15366286039352417 -2.2369318008422847 0.15366283059120178
			vertex 0.15366290509700775 -2.2369318008422847 0.15366274118423462
		endloop
	endfacet
	facet normal 0 1 0
		outer loop
			vertex 0.43333497643470764 -1.4845734596252442 0.43333494663238525
			vertex 0.43333497643470764 -1.4845734596252442 -0.43333497643470764
			vertex -0.4333350360393524 -1.4845734596252442 -0.4333348870277405
		endloop
	endfacet
	facet normal 0 1 0
		outer loop
			vertex -0.4333350360393524 -1.4845734596252442 -0.4333348870277405
			vertex -0.4333348274230957 -1.4845734596252442 0.4333351254463196
			vertex 0.43333497643470764 -1.4845734596252442 0.43333494663238525
		endloop
	endfacet
	facet normal 0 -1 0
		outer loop
			vertex 0.2262246012687683 -1.9949114322662351 0.2262243628501892
			vertex -0.22622452676296234 -1.9949114322662351 0.22622449696063995
			vertex -0.2262246310710907 -1.9949114322662351 -0.22622446715831757
		endloop
	endfacet
	facet normal 0 -1 0
		outer loop
			vertex -0.2262246310710907 -1.9949114322662351 -0.22622446715831757
			vertex 0.22622434794902802 -1.9949114322662351 -0.22622470557689667
			vertex 0.2262246012687683 -1.9949114322662351 0.2262243628501892
		endloop
	endfacet
	facet normal 0.9266023484728149 -0.3760426675317514 -5.187913571979822e-7
		outer loop
			vertex 0.43333497643470764 -1.4845734596252442 0.43333494663238525
			vertex 0.2262246012687683 -1.9949114322662351 0.2262243628501892
			vertex 0.22622434794902802 -1.9949114322662351 -0.22622470557689667
		endloop
	endfacet
	facet normal 0.9266021148477465 -0.3760432432044 0
		outer loop
			vertex 0.22622434794902802 -1.9949114322662351 -0.22622470557689667
			vertex 0.43333497643470764 -1.4845734596252442 -0.43333497643470764
			vertex 0.43333497643470764 -1.4845734596252442 0.43333494663238525
		endloop
	endfacet
	facet normal -4.882743475255795e-7 -0.3760425155576845 -0.9266024101483927
		outer loop
			vertex 0.43333497643470764 -1.4845734596252442 -0.43333497643470764
			vertex 0.22622434794902802 -1.9949114322662351 -0.22622470557689667
			vertex -0.2262246310710907 -1.9949114322662351 -0.22622446715831757
		endloop
	endfacet
	facet normal -9.55896641797023e-8 -0.37604295129713183 -0.9266022333125115
		outer loop
			vertex -0.2262246310710907 -1.9949114322662351 -0.22622446715831757
			vertex -0.4333350360393524 -1.4845734596252442 -0.4333348870277405
			vertex 0.43333497643470764 -1.4845734596252442 -0.43333497643470764
		endloop
	endfacet
	facet normal -0.9266022864645743 -0.3760428203257939 2.1362000556368443e-7
		outer loop
			vertex -0.4333350360393524 -1.4845734596252442 -0.4333348870277405
			vertex -0.2262246310710907 -1.9949114322662351 -0.22622446715831757
			vertex -0.22622452676296234 -1.9949114322662351 0.22622449696063995
		endloop
	endfacet
	facet normal -0.9266022907077917 -0.37604280987013133 2.2304256356826442e-7
		outer loop
			vertex -0.22622452676296234 -1.9949114322662351 0.22622449696063995
			vertex -0.4333348274230957 -1.4845734596252442 0.4333351254463196
			vertex -0.4333350360393524 -1.4845734596252442 -0.4333348870277405
		endloop
	endfacet
	facet normal 1.9117935019359305e-7 -0.376043240130458 0.9266021160952257
		outer loop
			vertex 0.2262246012687683 -1.9949114322662351 0.2262243628501892
			vertex 0.43333497643470764 -1.4845734596252442 0.43333494663238525
			vertex -0.4333348274230957 -1.4845734596252442 0.4333351254463196
		endloop
	endfacet
	facet normal 2.746541540092647e-7 -0.37604314750336504 0.9266021536860829
		outer loop
			vertex -0.4333348274230957 -1.4845734596252442 0.4333351254463196
			vertex -0.22622452676296234 -1.9949114322662351 0.22622449696063995
			vertex 0.2262246012687683 -1.9949114322662351 0.2262243628501892
		endloop
	endfacet
	facet normal 0 1 0
		outer loop
			vertex 0.6076385378837585 -0.9538043498992921 0.6076384782791138
			vertex 0.6076385378837585 -0.9538043498992921 -0.6076385378837585
			vertex -0.6076385974884033 -0.9538043498992921 -0.607638418674469
		endloop
	endfacet
	facet normal 0 1 0
		outer loop
			vertex -0.6076385974884033 -0.9538043498992921 -0.607638418674469
			vertex -0.6076382994651794 -0.9538043498992921 0.6076387763023376
			vertex 0.6076385378837585 -0.9538043498992921 0.6076384782791138
		endloop
	endfacet
	facet normal 0 -1 0
		outer loop
			vertex 0.3172205984592438 -1.6694194316864013 0.3172202706336975
			vertex -0.3172205090522766 -1.6694194316864013 0.3172204792499542
			vertex -0.31722065806388855 -1.6694194316864013 -0.31722041964530945
		endloop
	endfacet
	facet normal 0 -1 0
		outer loop
			vertex -0.31722065806388855 -1.6694194316864013 -0.31722041964530945
			vertex 0.3172202408313751 -1.6694194316864013 -0.3172207474708557
			vertex 0.3172205984592438 -1.6694194316864013 0.3172202706336975
		endloop
	endfacet
	facet normal 0.9266023539563847 -0.3760426540197457 -5.223162050960844e-7
		outer loop
			vertex 0.6076385378837585 -0.9538043498992921 0.6076384782791138
			vertex 0.3172205984592438 -1.6694194316864013 0.3172202706336975
			vertex 0.3172202408313751 -1.6694194316864013 -0.3172207474708557
		endloop
	endfacet
	facet normal 0.92660211874402 -0.37604323360365505 0
		outer loop
			vertex 0.3172202408313751 -1.6694194316864013 -0.3172207474708557
			vertex 0.6076385378837585 -0.9538043498992921 -0.6076385378837585
			vertex 0.6076385378837585 -0.9538043498992921 0.6076384782791138
		endloop
	endfacet
	facet normal -4.78789976192951e-7 -0.3760425035248793 -0.926602415031664
		outer loop
			vertex 0.6076385378837585 -0.9538043498992921 -0.6076385378837585
			vertex 0.3172202408313751 -1.6694194316864013 -0.3172207474708557
			vertex -0.31722065806388855 -1.6694194316864013 -0.31722041964530945
		endloop
	endfacet
	facet normal -9.08925145988618e-8 -0.3760429339521977 -0.9266022403516058
		outer loop
			vertex -0.31722065806388855 -1.6694194316864013 -0.31722041964530945
			vertex -0.6076385974884033 -0.9538043498992921 -0.607638418674469
			vertex 0.6076385378837585 -0.9538043498992921 -0.6076385378837585
		endloop
	endfacet
	facet normal -0.9266023108715619 -0.37604276018484156 2.176317828962706e-7
		outer loop
			vertex -0.6076385974884033 -0.9538043498992921 -0.607638418674469
			vertex -0.31722065806388855 -1.6694194316864013 -0.31722041964530945
			vertex -0.3172205090522766 -1.6694194316864013 0.3172204792499542
		endloop
	endfacet
	facet normal -0.9266023151944645 -0.37604274953282474 2.2723129370610234e-7
		outer loop
			vertex -0.3172205090522766 -1.6694194316864013 0.3172204792499542
			vertex -0.6076382994651794 -0.9538043498992921 0.6076387763023376
			vertex -0.6076385974884033 -0.9538043498992921 -0.607638418674469
		endloop
	endfacet
	facet normal 2.2723131441163298e-7 -0.3760432133839349 0.9266021269497674
		outer loop
			vertex 0.3172205984592438 -1.6694194316864013 0.3172202706336975
			vertex 0.6076385378837585 -0.9538043498992921 0.6076384782791138
			vertex -0.6076382994651794 -0.9538043498992921 0.6076387763023376
		endloop
	endfacet
	facet normal 3.0468434686067837e-7 -0.37604312743885787 0.9266021618288564
		outer loop
			vertex -0.6076382994651794 -0.9538043498992921 0.6076387763023376
			vertex -0.3172205090522766 -1.6694194316864013 0.3172204792499542
			vertex 0.3172205984592438 -1.6694194316864013 0.3172202706336975
		endloop
	endfacet
	facet normal 0 1 0
		outer loop
			vertex 0.8982527852058411 -0.055903661251068104 0.8982527256011963
			vertex 0.8982527852058411 -0.055903661251068104 -0.8982527852058411
			vertex -0.8982529044151306 -0.055903661251068104 -0.8982526063919067
		endloop
	endfacet
	facet normal 0 1 0
		outer loop
			vertex -0.8982529044151306 -0.055903661251068104 -0.8982526063919067
			vertex -0.8982524871826172 -0.055903661251068104 0.8982530832290649
			vertex 0.8982527852058411 -0.055903661251068104 0.8982527256011963
		endloop
	endfacet
	facet normal 0 -1 0
		outer loop
			vertex 0.4689371585845947 -1.113774585723877 0.4689366817474365
			vertex -0.4689370095729828 -1.113774585723877 0.468936949968338
			vertex -0.4689372181892395 -1.113774585723877 -0.46893689036369324
		endloop
	endfacet
	facet normal 0 -1 0
		outer loop
			vertex -0.4689372181892395 -1.113774585723877 -0.46893689036369324
			vertex 0.46893662214279175 -1.113774585723877 -0.46893739700317383
			vertex 0.4689371585845947 -1.113774585723877 0.4689366817474365
		endloop
	endfacet
	facet normal 0.9266023366200239 -0.376042696738058 -5.29994632928464e-7
		outer loop
			vertex 0.8982527852058411 -0.055903661251068104 0.8982527256011963
			vertex 0.4689371585845947 -1.113774585723877 0.4689366817474365
			vertex 0.46893662214279175 -1.113774585723877 -0.46893739700317383
		endloop
	endfacet
	facet normal 0.9266020979497983 -0.37604328484236005 0
		outer loop
			vertex 0.46893662214279175 -1.113774585723877 -0.46893739700317383
			vertex 0.8982527852058411 -0.055903661251068104 -0.8982527852058411
			vertex 0.8982527852058411 -0.055903661251068104 0.8982527256011963
		endloop
	endfacet
	facet normal -5.005506509597648e-7 -0.3760425276945334 -0.9266024052228959
		outer loop
			vertex 0.8982527852058411 -0.055903661251068104 -0.8982527852058411
			vertex 0.46893662214279175 -1.113774585723877 -0.46893739700317383
			vertex -0.4689372181892395 -1.113774585723877 -0.46893689036369324
		endloop
	endfacet
	facet normal -9.222870248134422e-8 -0.37604298078576737 -0.9266022213451393
		outer loop
			vertex -0.4689372181892395 -1.113774585723877 -0.46893689036369324
			vertex -0.8982529044151306 -0.055903661251068104 -0.8982526063919067
			vertex 0.8982527852058411 -0.055903661251068104 -0.8982527852058411
		endloop
	endfacet
	facet normal -0.9266022726283685 -0.37604285441941343 2.061090620779633e-7
		outer loop
			vertex -0.8982529044151306 -0.055903661251068104 -0.8982526063919067
			vertex -0.4689372181892395 -1.113774585723877 -0.46893689036369324
			vertex -0.4689370095729828 -1.113774585723877 0.468936949968338
		endloop
	endfacet
	facet normal -0.9266022767223929 -0.3760428443313762 2.1520031865098745e-7
		outer loop
			vertex -0.4689370095729828 -1.113774585723877 0.468936949968338
			vertex -0.8982524871826172 -0.055903661251068104 0.8982530832290649
			vertex -0.8982529044151306 -0.055903661251068104 -0.8982526063919067
		endloop
	endfacet
	facet normal 1.844574252884732e-7 -0.37604325946364076 0.926602108249235
		outer loop
			vertex 0.4689371585845947 -1.113774585723877 0.4689366817474365
			vertex 0.8982527852058411 -0.055903661251068104 0.8982527256011963
			vertex -0.8982524871826172 -0.055903661251068104 0.8982530832290649
		endloop
	endfacet
	facet normal 2.6499723626341055e-7 -0.3760431700933324 0.9266021445183941
		outer loop
			vertex -0.8982524871826172 -0.055903661251068104 0.8982530832290649
			vertex -0.4689370095729828 -1.113774585723877 0.468936949968338
			vertex 0.4689371585845947 -1.113774585723877 0.4689366817474365
		endloop
	endfacet
	facet normal 0 1 0
		outer loop
			vertex 0.9819818735122681 0.4771386027336121 0.9819818139076233
			vertex 0.9819818735122681 0.4771386027336121 -0.9819818735122681
			vertex -0.9819819927215576 0.4771386027336121 -0.9819816946983337
		endloop
	endfacet
	facet normal 0 1 0
		outer loop
			vertex -0.9819819927215576 0.4771386027336121 -0.9819816946983337
			vertex -0.9819815158843994 0.4771386027336121 0.9819822311401367
			vertex 0.9819818735122681 0.4771386027336121 0.9819818139076233
		endloop
	endfacet
	facet normal 0 -1 0
		outer loop
			vertex 0.512648344039917 -0.6793399810791014 0.512647807598114
			vertex -0.5126481652259827 -0.6793399810791014 0.5126481056213379
			vertex -0.5126484036445618 -0.6793399810791014 -0.5126480460166931
		endloop
	endfacet
	facet normal 0 -1 0
		outer loop
			vertex -0.5126484036445618 -0.6793399810791014 -0.5126480460166931
			vertex 0.5126477479934692 -0.6793399810791014 -0.5126485824584961
			vertex 0.512648344039917 -0.6793399810791014 0.512647807598114
		endloop
	endfacet
	facet normal 0.9266023466020766 -0.3760426721413869 -5.386715905067289e-7
		outer loop
			vertex 0.9819818735122681 0.4771386027336121 0.9819818139076233
			vertex 0.512648344039917 -0.6793399810791014 0.512647807598114
			vertex 0.5126477479934692 -0.6793399810791014 -0.5126485824584961
		endloop
	endfacet
	facet normal 0.926602104024416 -0.3760432698739938 0
		outer loop
			vertex 0.5126477479934692 -0.6793399810791014 -0.5126485824584961
			vertex 0.9819818735122681 0.4771386027336121 -0.9819818735122681
			vertex 0.9819818735122681 0.4771386027336121 0.9819818139076233
		endloop
	endfacet
	facet normal -4.848045750309988e-7 -0.3760425268962456 -0.9266024055468729
		outer loop
			vertex 0.9819818735122681 0.4771386027336121 -0.9819818735122681
			vertex 0.5126477479934692 -0.6793399810791014 -0.5126485824584961
			vertex -0.5126484036445618 -0.6793399810791014 -0.5126480460166931
		endloop
	endfacet
	facet normal -8.436478506321285e-8 -0.3760429712410943 -0.9266022252186545
		outer loop
			vertex -0.5126484036445618 -0.6793399810791014 -0.5126480460166931
			vertex -0.9819819927215576 0.4771386027336121 -0.9819816946983337
			vertex 0.9819818735122681 0.4771386027336121 -0.9819818735122681
		endloop
	endfacet
	facet normal -0.9266022842580769 -0.3760428257627949 2.1546867180972875e-7
		outer loop
			vertex -0.9819819927215576 0.4771386027336121 -0.9819816946983337
			vertex -0.5126484036445618 -0.6793399810791014 -0.5126480460166931
			vertex -0.5126481652259827 -0.6793399810791014 0.5126481056213379
		endloop
	endfacet
	facet normal -0.9266022885380133 -0.3760428152166528 2.2497276871434658e-7
		outer loop
			vertex -0.5126481652259827 -0.6793399810791014 0.5126481056213379
			vertex -0.9819815158843994 0.4771386027336121 0.9819822311401367
			vertex -0.9819819927215576 0.4771386027336121 -0.9819816946983337
		endloop
	endfacet
	facet normal 1.9685118835131267e-7 -0.3760432564579468 0.9266021094690343
		outer loop
			vertex 0.512648344039917 -0.6793399810791014 0.512647807598114
			vertex 0.9819818735122681 0.4771386027336121 0.9819818139076233
			vertex -0.9819815158843994 0.4771386027336121 0.9819822311401367
		endloop
	endfacet
	facet normal 2.6933570449862943e-7 -0.3760431760261309 0.9266021421106837
		outer loop
			vertex -0.9819815158843994 0.4771386027336121 0.9819822311401367
			vertex -0.5126481652259827 -0.6793399810791014 0.5126481056213379
			vertex 0.512648344039917 -0.6793399810791014 0.512647807598114
		endloop
	endfacet
endsolid exported
